<?xml version="1.0"?>
<svg version="1.1" xmlns="http://www.w3.org/2000/svg" width="145px" height="50px" style=""><path fill="#000305" d="M11.672,21.776q-3.472,0-5.828,2.511q-2.325,2.48-2.325,6.045l0,13.268l1.953,0l0-9.734l12.462,0l0,9.734l1.953,0l0-13.268q0-3.565-2.325-6.045q-2.418-2.511-5.89-2.511z M17.934,31.944l-12.462,0l0-1.612q0-2.666,1.798-4.619q1.829-1.984,4.402-1.984t4.464,1.984q1.798,1.953,1.798,4.619l0,1.612z M34.42104,32.719l2.325,0q2.356,0,3.906-1.55t1.55-3.906q0-2.077-1.55-3.72q-1.643-1.705-3.906-1.705l-9.703,0l-1.922,0l0,21.762l1.922,0l0-10.881l5.053,0l6.603,10.881l2.325,0z M27.04304,30.797l0-7.006l9.703,0q1.426,0,2.511,1.023q1.023,1.023,1.023,2.449q0,1.488-1.023,2.511q-1.085,1.023-2.511,1.023l-9.703,0z M62.59508,21.9l-16.802,0l0,1.891l7.626,0l0,19.871l1.922,0l0-19.871l7.254,0l0-1.891z M81.22112,32.533q1.209-0.589,1.984-1.953q0.775-1.302,0.775-2.79q0-2.666-1.798-4.309q-1.798-1.612-4.526-1.612l-8.711,0l-0.372,0l-1.581,0l0,21.731l1.581,0l0.372,0l8.711,0q2.728,0,4.526-1.612q1.798-1.643,1.798-4.309q0-1.457-0.7595-2.8365t-1.9995-2.3095z M68.94512,23.45l8.711,0q1.86,0,3.069,1.271q1.302,1.364,1.302,3.069q0,1.395-1.023,2.573q-0.961,1.054-2.542,1.395l-0.806,0l-8.711,0l0-8.308z M77.65612,42.019l-8.711,0l0-8.308l8.711,0l0.806,0q1.581,0.341,2.542,1.395q1.023,1.178,1.023,2.573q0,1.674-1.302,3.038q-1.24,1.302-3.069,1.302z M97.33616,21.9q-3.503,0-6.014,2.511q-2.542,2.542-2.542,6.045l0,4.681q0,3.441,2.542,5.983t6.014,2.542q3.503,0,6.045-2.542q2.511-2.511,2.511-5.983l0-4.681q0-3.534-2.511-6.045t-6.045-2.511z M103.97016,30.456l0,4.681q0,2.821-1.984,4.743q-1.953,1.86-4.65,1.86t-4.619-1.86q-1.984-1.922-1.984-4.743l0-4.681q0-2.604,1.984-4.65q1.984-1.984,4.619-1.984q2.604,0,4.65,1.984q1.984,2.046,1.984,4.65z M126.3472,21.9l-16.802,0l0,1.891l7.626,0l0,19.871l1.922,0l0-19.871l7.254,0l0-1.891z"/><path fill="#" d=""/></svg>
